<mxfile host="Electron" modified="2023-12-20T16:55:26.035Z" agent="Mozilla/5.0 (Windows NT 10.0; Win64; x64) AppleWebKit/537.36 (KHTML, like Gecko) draw.io/22.1.11 Chrome/114.0.5735.289 Electron/25.9.8 Safari/537.36" etag="P65CsAFOi7j7fQQ6IUVG" version="22.1.11" type="device">
  <diagram name="Страница — 1" id="Ka0GVukraK6KWafEzucV">
    <mxGraphModel dx="3585" dy="2090" grid="1" gridSize="10" guides="1" tooltips="1" connect="1" arrows="1" fold="1" page="1" pageScale="1" pageWidth="827" pageHeight="1169" math="0" shadow="0">
      <root>
        <mxCell id="0" />
        <mxCell id="1" parent="0" />
        <mxCell id="tF1bfnV3jYQsMt58wjSI-1" value="User" style="shape=umlActor;verticalLabelPosition=bottom;verticalAlign=top;html=1;outlineConnect=0;fillColor=#e1d5e7;strokeColor=#9673a6;" parent="1" vertex="1">
          <mxGeometry x="34" y="580" width="30" height="60" as="geometry" />
        </mxCell>
        <mxCell id="tF1bfnV3jYQsMt58wjSI-2" value="&lt;br&gt;&lt;br&gt;&lt;br&gt;Robot cleaner" style="shape=cylinder3;whiteSpace=wrap;html=1;boundedLbl=1;backgroundOutline=1;size=15;fillColor=#e1d5e7;strokeColor=#9673a6;" parent="1" vertex="1">
          <mxGeometry x="714" y="590" width="80" height="40" as="geometry" />
        </mxCell>
        <mxCell id="KCjV9fs8T_sXrVQNTSXh-2" value="Conrtol" style="ellipse;whiteSpace=wrap;html=1;fillColor=#dae8fc;strokeColor=#6c8ebf;" parent="1" vertex="1">
          <mxGeometry x="144" y="650" width="120" height="80" as="geometry" />
        </mxCell>
        <mxCell id="KCjV9fs8T_sXrVQNTSXh-3" value="Schedule" style="ellipse;whiteSpace=wrap;html=1;fillColor=#d5e8d4;strokeColor=#82b366;" parent="1" vertex="1">
          <mxGeometry x="390" y="940" width="120" height="80" as="geometry" />
        </mxCell>
        <mxCell id="KCjV9fs8T_sXrVQNTSXh-4" value="Cleaning" style="ellipse;whiteSpace=wrap;html=1;fillColor=#fff2cc;strokeColor=#d6b656;" parent="1" vertex="1">
          <mxGeometry x="315" y="240" width="120" height="80" as="geometry" />
        </mxCell>
        <mxCell id="KCjV9fs8T_sXrVQNTSXh-5" value="Dry" style="ellipse;whiteSpace=wrap;html=1;fillColor=#fff2cc;strokeColor=#d6b656;" parent="1" vertex="1">
          <mxGeometry x="465" y="140" width="120" height="80" as="geometry" />
        </mxCell>
        <mxCell id="KCjV9fs8T_sXrVQNTSXh-6" value="Wet" style="ellipse;whiteSpace=wrap;html=1;fillColor=#fff2cc;strokeColor=#d6b656;" parent="1" vertex="1">
          <mxGeometry x="165" y="140" width="120" height="80" as="geometry" />
        </mxCell>
        <mxCell id="KCjV9fs8T_sXrVQNTSXh-7" value="Manual control" style="ellipse;whiteSpace=wrap;html=1;fillColor=#dae8fc;strokeColor=#6c8ebf;" parent="1" vertex="1">
          <mxGeometry x="284" y="685" width="120" height="80" as="geometry" />
        </mxCell>
        <mxCell id="KCjV9fs8T_sXrVQNTSXh-8" value="Initial setup" style="ellipse;whiteSpace=wrap;html=1;fillColor=#ffe6cc;strokeColor=#d79b00;" parent="1" vertex="1">
          <mxGeometry x="89" y="390" width="120" height="80" as="geometry" />
        </mxCell>
        <mxCell id="KCjV9fs8T_sXrVQNTSXh-9" value="Update" style="ellipse;whiteSpace=wrap;html=1;fillColor=#dae8fc;strokeColor=#6c8ebf;" parent="1" vertex="1">
          <mxGeometry x="660" y="940" width="120" height="80" as="geometry" />
        </mxCell>
        <mxCell id="KCjV9fs8T_sXrVQNTSXh-10" value="To the base" style="ellipse;whiteSpace=wrap;html=1;fillColor=#dae8fc;strokeColor=#6c8ebf;" parent="1" vertex="1">
          <mxGeometry x="444" y="645" width="120" height="80" as="geometry" />
        </mxCell>
        <mxCell id="KCjV9fs8T_sXrVQNTSXh-11" value="Self cleaning" style="ellipse;whiteSpace=wrap;html=1;fillColor=#dae8fc;strokeColor=#6c8ebf;" parent="1" vertex="1">
          <mxGeometry x="580" y="830" width="120" height="80" as="geometry" />
        </mxCell>
        <mxCell id="KCjV9fs8T_sXrVQNTSXh-12" value="Power" style="ellipse;whiteSpace=wrap;html=1;fillColor=#fff2cc;strokeColor=#d6b656;" parent="1" vertex="1">
          <mxGeometry x="465" y="240" width="120" height="80" as="geometry" />
        </mxCell>
        <mxCell id="KCjV9fs8T_sXrVQNTSXh-13" value="Mode" style="ellipse;whiteSpace=wrap;html=1;fillColor=#fff2cc;strokeColor=#d6b656;" parent="1" vertex="1">
          <mxGeometry x="465" y="340" width="120" height="80" as="geometry" />
        </mxCell>
        <mxCell id="KCjV9fs8T_sXrVQNTSXh-14" value="Configuration" style="ellipse;whiteSpace=wrap;html=1;fillColor=#fff2cc;strokeColor=#d6b656;" parent="1" vertex="1">
          <mxGeometry x="315" y="380" width="120" height="80" as="geometry" />
        </mxCell>
        <mxCell id="KCjV9fs8T_sXrVQNTSXh-15" value="Pause/resume" style="ellipse;whiteSpace=wrap;html=1;fillColor=#dae8fc;strokeColor=#6c8ebf;" parent="1" vertex="1">
          <mxGeometry x="370" y="560" width="120" height="80" as="geometry" />
        </mxCell>
        <mxCell id="KCjV9fs8T_sXrVQNTSXh-16" value="Start" style="ellipse;whiteSpace=wrap;html=1;fillColor=#dae8fc;strokeColor=#6c8ebf;" parent="1" vertex="1">
          <mxGeometry x="520" y="730" width="120" height="80" as="geometry" />
        </mxCell>
        <mxCell id="KCjV9fs8T_sXrVQNTSXh-17" value="Dry and wet" style="ellipse;whiteSpace=wrap;html=1;fillColor=#fff2cc;strokeColor=#d6b656;" parent="1" vertex="1">
          <mxGeometry x="315" y="140" width="120" height="80" as="geometry" />
        </mxCell>
        <mxCell id="KCjV9fs8T_sXrVQNTSXh-18" value="" style="endArrow=none;html=1;rounded=0;entryX=0;entryY=0;entryDx=0;entryDy=0;exitX=0.5;exitY=0.5;exitDx=0;exitDy=0;exitPerimeter=0;" parent="1" source="tF1bfnV3jYQsMt58wjSI-1" target="KCjV9fs8T_sXrVQNTSXh-2" edge="1">
          <mxGeometry width="50" height="50" relative="1" as="geometry">
            <mxPoint x="474" y="680" as="sourcePoint" />
            <mxPoint x="524" y="630" as="targetPoint" />
          </mxGeometry>
        </mxCell>
        <mxCell id="KCjV9fs8T_sXrVQNTSXh-19" value="" style="endArrow=none;html=1;rounded=0;exitX=0.5;exitY=0.5;exitDx=0;exitDy=0;exitPerimeter=0;entryX=0;entryY=0.5;entryDx=0;entryDy=0;" parent="1" source="tF1bfnV3jYQsMt58wjSI-1" target="KCjV9fs8T_sXrVQNTSXh-14" edge="1">
          <mxGeometry width="50" height="50" relative="1" as="geometry">
            <mxPoint x="474" y="680" as="sourcePoint" />
            <mxPoint x="524" y="630" as="targetPoint" />
          </mxGeometry>
        </mxCell>
        <mxCell id="KCjV9fs8T_sXrVQNTSXh-20" value="" style="endArrow=none;html=1;rounded=0;exitX=0.5;exitY=0.5;exitDx=0;exitDy=0;exitPerimeter=0;entryX=0;entryY=1;entryDx=0;entryDy=0;" parent="1" source="tF1bfnV3jYQsMt58wjSI-1" target="KCjV9fs8T_sXrVQNTSXh-8" edge="1">
          <mxGeometry width="50" height="50" relative="1" as="geometry">
            <mxPoint x="474" y="680" as="sourcePoint" />
            <mxPoint x="524" y="630" as="targetPoint" />
          </mxGeometry>
        </mxCell>
        <mxCell id="KCjV9fs8T_sXrVQNTSXh-22" value="" style="endArrow=none;html=1;rounded=0;exitX=1;exitY=0.5;exitDx=0;exitDy=0;entryX=0;entryY=0.5;entryDx=0;entryDy=0;" parent="1" source="KCjV9fs8T_sXrVQNTSXh-14" target="KCjV9fs8T_sXrVQNTSXh-13" edge="1">
          <mxGeometry width="50" height="50" relative="1" as="geometry">
            <mxPoint x="495" y="570" as="sourcePoint" />
            <mxPoint x="545" y="520" as="targetPoint" />
          </mxGeometry>
        </mxCell>
        <mxCell id="KCjV9fs8T_sXrVQNTSXh-23" value="" style="endArrow=none;html=1;rounded=0;exitX=1;exitY=0;exitDx=0;exitDy=0;entryX=0;entryY=0.5;entryDx=0;entryDy=0;" parent="1" source="KCjV9fs8T_sXrVQNTSXh-14" target="KCjV9fs8T_sXrVQNTSXh-12" edge="1">
          <mxGeometry width="50" height="50" relative="1" as="geometry">
            <mxPoint x="495" y="570" as="sourcePoint" />
            <mxPoint x="545" y="520" as="targetPoint" />
          </mxGeometry>
        </mxCell>
        <mxCell id="KCjV9fs8T_sXrVQNTSXh-24" value="" style="endArrow=none;html=1;rounded=0;exitX=0.5;exitY=0;exitDx=0;exitDy=0;entryX=0.5;entryY=1;entryDx=0;entryDy=0;" parent="1" source="KCjV9fs8T_sXrVQNTSXh-14" target="KCjV9fs8T_sXrVQNTSXh-4" edge="1">
          <mxGeometry width="50" height="50" relative="1" as="geometry">
            <mxPoint x="427" y="402" as="sourcePoint" />
            <mxPoint x="475" y="370" as="targetPoint" />
          </mxGeometry>
        </mxCell>
        <mxCell id="KCjV9fs8T_sXrVQNTSXh-25" value="" style="endArrow=none;html=1;rounded=0;exitX=1;exitY=1;exitDx=0;exitDy=0;entryX=0;entryY=0;entryDx=0;entryDy=0;" parent="1" source="KCjV9fs8T_sXrVQNTSXh-6" target="KCjV9fs8T_sXrVQNTSXh-4" edge="1">
          <mxGeometry width="50" height="50" relative="1" as="geometry">
            <mxPoint x="437" y="412" as="sourcePoint" />
            <mxPoint x="485" y="380" as="targetPoint" />
          </mxGeometry>
        </mxCell>
        <mxCell id="KCjV9fs8T_sXrVQNTSXh-26" value="" style="endArrow=none;html=1;rounded=0;exitX=0.5;exitY=1;exitDx=0;exitDy=0;entryX=0.5;entryY=0;entryDx=0;entryDy=0;" parent="1" source="KCjV9fs8T_sXrVQNTSXh-17" target="KCjV9fs8T_sXrVQNTSXh-4" edge="1">
          <mxGeometry width="50" height="50" relative="1" as="geometry">
            <mxPoint x="447" y="422" as="sourcePoint" />
            <mxPoint x="495" y="390" as="targetPoint" />
          </mxGeometry>
        </mxCell>
        <mxCell id="KCjV9fs8T_sXrVQNTSXh-27" value="" style="endArrow=none;html=1;rounded=0;exitX=1;exitY=0;exitDx=0;exitDy=0;entryX=0;entryY=1;entryDx=0;entryDy=0;" parent="1" source="KCjV9fs8T_sXrVQNTSXh-4" target="KCjV9fs8T_sXrVQNTSXh-5" edge="1">
          <mxGeometry width="50" height="50" relative="1" as="geometry">
            <mxPoint x="457" y="432" as="sourcePoint" />
            <mxPoint x="505" y="400" as="targetPoint" />
          </mxGeometry>
        </mxCell>
        <mxCell id="KCjV9fs8T_sXrVQNTSXh-28" value="" style="endArrow=none;html=1;rounded=0;exitX=0.5;exitY=1;exitDx=0;exitDy=0;entryX=0;entryY=0.5;entryDx=0;entryDy=0;" parent="1" source="KCjV9fs8T_sXrVQNTSXh-2" target="KCjV9fs8T_sXrVQNTSXh-3" edge="1">
          <mxGeometry width="50" height="50" relative="1" as="geometry">
            <mxPoint x="446" y="552" as="sourcePoint" />
            <mxPoint x="494" y="520" as="targetPoint" />
          </mxGeometry>
        </mxCell>
        <mxCell id="KCjV9fs8T_sXrVQNTSXh-29" value="" style="endArrow=none;html=1;rounded=0;exitX=1;exitY=1;exitDx=0;exitDy=0;entryX=0;entryY=0.5;entryDx=0;entryDy=0;" parent="1" source="KCjV9fs8T_sXrVQNTSXh-2" target="KCjV9fs8T_sXrVQNTSXh-7" edge="1">
          <mxGeometry width="50" height="50" relative="1" as="geometry">
            <mxPoint x="456" y="562" as="sourcePoint" />
            <mxPoint x="504" y="530" as="targetPoint" />
          </mxGeometry>
        </mxCell>
        <mxCell id="KCjV9fs8T_sXrVQNTSXh-30" value="" style="endArrow=none;html=1;rounded=0;exitX=0.5;exitY=1;exitDx=0;exitDy=0;entryX=0;entryY=0;entryDx=0;entryDy=0;" parent="1" source="KCjV9fs8T_sXrVQNTSXh-7" target="KCjV9fs8T_sXrVQNTSXh-9" edge="1">
          <mxGeometry width="50" height="50" relative="1" as="geometry">
            <mxPoint x="274" y="700" as="sourcePoint" />
            <mxPoint x="304" y="700" as="targetPoint" />
          </mxGeometry>
        </mxCell>
        <mxCell id="KCjV9fs8T_sXrVQNTSXh-31" value="" style="endArrow=none;html=1;rounded=0;exitX=1;exitY=0;exitDx=0;exitDy=0;entryX=0;entryY=0.5;entryDx=0;entryDy=0;" parent="1" source="KCjV9fs8T_sXrVQNTSXh-7" target="KCjV9fs8T_sXrVQNTSXh-10" edge="1">
          <mxGeometry width="50" height="50" relative="1" as="geometry">
            <mxPoint x="406" y="772" as="sourcePoint" />
            <mxPoint x="454" y="700" as="targetPoint" />
          </mxGeometry>
        </mxCell>
        <mxCell id="KCjV9fs8T_sXrVQNTSXh-32" value="" style="endArrow=none;html=1;rounded=0;exitX=0.5;exitY=0;exitDx=0;exitDy=0;entryX=0;entryY=1;entryDx=0;entryDy=0;" parent="1" source="KCjV9fs8T_sXrVQNTSXh-7" target="KCjV9fs8T_sXrVQNTSXh-15" edge="1">
          <mxGeometry width="50" height="50" relative="1" as="geometry">
            <mxPoint x="416" y="782" as="sourcePoint" />
            <mxPoint x="464" y="710" as="targetPoint" />
          </mxGeometry>
        </mxCell>
        <mxCell id="KCjV9fs8T_sXrVQNTSXh-33" value="" style="endArrow=none;html=1;rounded=0;exitX=1;exitY=0.5;exitDx=0;exitDy=0;entryX=0;entryY=0.5;entryDx=0;entryDy=0;" parent="1" source="KCjV9fs8T_sXrVQNTSXh-7" target="KCjV9fs8T_sXrVQNTSXh-16" edge="1">
          <mxGeometry width="50" height="50" relative="1" as="geometry">
            <mxPoint x="426" y="792" as="sourcePoint" />
            <mxPoint x="474" y="720" as="targetPoint" />
          </mxGeometry>
        </mxCell>
        <mxCell id="KCjV9fs8T_sXrVQNTSXh-34" value="" style="endArrow=none;html=1;rounded=0;exitX=1;exitY=1;exitDx=0;exitDy=0;entryX=0;entryY=0;entryDx=0;entryDy=0;" parent="1" source="KCjV9fs8T_sXrVQNTSXh-7" target="KCjV9fs8T_sXrVQNTSXh-11" edge="1">
          <mxGeometry width="50" height="50" relative="1" as="geometry">
            <mxPoint x="436" y="802" as="sourcePoint" />
            <mxPoint x="484" y="730" as="targetPoint" />
          </mxGeometry>
        </mxCell>
        <mxCell id="KCjV9fs8T_sXrVQNTSXh-35" value="" style="endArrow=none;html=1;rounded=0;exitX=1;exitY=0;exitDx=0;exitDy=0;entryX=0.145;entryY=1;entryDx=0;entryDy=-4.35;entryPerimeter=0;" parent="1" source="KCjV9fs8T_sXrVQNTSXh-10" target="tF1bfnV3jYQsMt58wjSI-2" edge="1">
          <mxGeometry width="50" height="50" relative="1" as="geometry">
            <mxPoint x="406" y="772" as="sourcePoint" />
            <mxPoint x="454" y="700" as="targetPoint" />
          </mxGeometry>
        </mxCell>
        <mxCell id="KCjV9fs8T_sXrVQNTSXh-36" value="" style="endArrow=none;html=1;rounded=0;exitX=1;exitY=0.5;exitDx=0;exitDy=0;entryX=0;entryY=1;entryDx=0;entryDy=-15;entryPerimeter=0;" parent="1" source="KCjV9fs8T_sXrVQNTSXh-15" target="tF1bfnV3jYQsMt58wjSI-2" edge="1">
          <mxGeometry width="50" height="50" relative="1" as="geometry">
            <mxPoint x="556" y="772" as="sourcePoint" />
            <mxPoint x="736" y="636" as="targetPoint" />
          </mxGeometry>
        </mxCell>
        <mxCell id="KCjV9fs8T_sXrVQNTSXh-37" value="" style="endArrow=none;html=1;rounded=0;exitX=0.5;exitY=0;exitDx=0;exitDy=0;entryX=0.855;entryY=1;entryDx=0;entryDy=-4.35;entryPerimeter=0;" parent="1" source="KCjV9fs8T_sXrVQNTSXh-11" target="tF1bfnV3jYQsMt58wjSI-2" edge="1">
          <mxGeometry width="50" height="50" relative="1" as="geometry">
            <mxPoint x="566" y="782" as="sourcePoint" />
            <mxPoint x="746" y="646" as="targetPoint" />
          </mxGeometry>
        </mxCell>
        <mxCell id="KCjV9fs8T_sXrVQNTSXh-38" value="" style="endArrow=none;html=1;rounded=0;exitX=1;exitY=0;exitDx=0;exitDy=0;entryX=0.5;entryY=1;entryDx=0;entryDy=0;entryPerimeter=0;" parent="1" source="KCjV9fs8T_sXrVQNTSXh-16" target="tF1bfnV3jYQsMt58wjSI-2" edge="1">
          <mxGeometry width="50" height="50" relative="1" as="geometry">
            <mxPoint x="576" y="792" as="sourcePoint" />
            <mxPoint x="756" y="656" as="targetPoint" />
          </mxGeometry>
        </mxCell>
        <mxCell id="KCjV9fs8T_sXrVQNTSXh-39" value="Reset" style="ellipse;whiteSpace=wrap;html=1;fillColor=#fff2cc;strokeColor=#d6b656;" parent="1" vertex="1">
          <mxGeometry x="465" y="440" width="120" height="80" as="geometry" />
        </mxCell>
        <mxCell id="KCjV9fs8T_sXrVQNTSXh-40" value="" style="endArrow=none;html=1;rounded=0;exitX=1;exitY=1;exitDx=0;exitDy=0;entryX=0;entryY=0.5;entryDx=0;entryDy=0;" parent="1" source="KCjV9fs8T_sXrVQNTSXh-14" target="KCjV9fs8T_sXrVQNTSXh-39" edge="1">
          <mxGeometry width="50" height="50" relative="1" as="geometry">
            <mxPoint x="445" y="430" as="sourcePoint" />
            <mxPoint x="475" y="390" as="targetPoint" />
          </mxGeometry>
        </mxCell>
        <mxCell id="Cf-lhE30uROeTPRjq0yv-2" value="Add cleaner" style="ellipse;whiteSpace=wrap;html=1;fillColor=#ffe6cc;strokeColor=#d79b00;" vertex="1" parent="1">
          <mxGeometry x="89" y="250" width="120" height="80" as="geometry" />
        </mxCell>
        <mxCell id="Cf-lhE30uROeTPRjq0yv-4" value="" style="endArrow=none;html=1;rounded=0;exitX=0.5;exitY=0;exitDx=0;exitDy=0;entryX=0.5;entryY=1;entryDx=0;entryDy=0;" edge="1" parent="1" source="KCjV9fs8T_sXrVQNTSXh-8" target="Cf-lhE30uROeTPRjq0yv-2">
          <mxGeometry width="50" height="50" relative="1" as="geometry">
            <mxPoint x="14" y="600" as="sourcePoint" />
            <mxPoint x="127" y="478" as="targetPoint" />
          </mxGeometry>
        </mxCell>
        <mxCell id="Cf-lhE30uROeTPRjq0yv-5" value="" style="endArrow=none;html=1;rounded=0;exitX=0;exitY=1;exitDx=0;exitDy=0;entryX=1;entryY=0;entryDx=0;entryDy=0;" edge="1" parent="1" source="KCjV9fs8T_sXrVQNTSXh-16" target="KCjV9fs8T_sXrVQNTSXh-3">
          <mxGeometry width="50" height="50" relative="1" as="geometry">
            <mxPoint x="354" y="800" as="sourcePoint" />
            <mxPoint x="354" y="835" as="targetPoint" />
          </mxGeometry>
        </mxCell>
        <mxCell id="Cf-lhE30uROeTPRjq0yv-6" value="" style="endArrow=none;html=1;rounded=0;exitX=0.5;exitY=1;exitDx=0;exitDy=0;entryX=0.5;entryY=0;entryDx=0;entryDy=0;" edge="1" parent="1" source="KCjV9fs8T_sXrVQNTSXh-10" target="KCjV9fs8T_sXrVQNTSXh-3">
          <mxGeometry width="50" height="50" relative="1" as="geometry">
            <mxPoint x="364" y="810" as="sourcePoint" />
            <mxPoint x="364" y="845" as="targetPoint" />
          </mxGeometry>
        </mxCell>
        <mxCell id="Cf-lhE30uROeTPRjq0yv-8" value="" style="endArrow=none;html=1;rounded=0;exitX=0.5;exitY=1;exitDx=0;exitDy=0;entryX=0;entryY=0;entryDx=0;entryDy=0;" edge="1" parent="1" source="KCjV9fs8T_sXrVQNTSXh-15" target="KCjV9fs8T_sXrVQNTSXh-3">
          <mxGeometry width="50" height="50" relative="1" as="geometry">
            <mxPoint x="594" y="750" as="sourcePoint" />
            <mxPoint x="440" y="950" as="targetPoint" />
          </mxGeometry>
        </mxCell>
        <mxCell id="Cf-lhE30uROeTPRjq0yv-9" value="" style="endArrow=none;html=1;rounded=0;exitX=0.5;exitY=0;exitDx=0;exitDy=0;entryX=1;entryY=1;entryDx=0;entryDy=-15;entryPerimeter=0;" edge="1" parent="1" source="KCjV9fs8T_sXrVQNTSXh-9" target="tF1bfnV3jYQsMt58wjSI-2">
          <mxGeometry width="50" height="50" relative="1" as="geometry">
            <mxPoint x="650" y="840" as="sourcePoint" />
            <mxPoint x="792" y="636" as="targetPoint" />
          </mxGeometry>
        </mxCell>
        <mxCell id="Cf-lhE30uROeTPRjq0yv-10" value="" style="endArrow=none;html=1;rounded=0;exitX=1;exitY=0.5;exitDx=0;exitDy=0;entryX=0;entryY=0.5;entryDx=0;entryDy=0;" edge="1" parent="1" source="KCjV9fs8T_sXrVQNTSXh-3" target="KCjV9fs8T_sXrVQNTSXh-9">
          <mxGeometry width="50" height="50" relative="1" as="geometry">
            <mxPoint x="660" y="850" as="sourcePoint" />
            <mxPoint x="802" y="646" as="targetPoint" />
          </mxGeometry>
        </mxCell>
        <mxCell id="Cf-lhE30uROeTPRjq0yv-11" value="Long" style="ellipse;whiteSpace=wrap;html=1;fillColor=#fff2cc;strokeColor=#d6b656;" vertex="1" parent="1">
          <mxGeometry x="640" y="500" width="120" height="80" as="geometry" />
        </mxCell>
        <mxCell id="Cf-lhE30uROeTPRjq0yv-12" value="Middle" style="ellipse;whiteSpace=wrap;html=1;fillColor=#fff2cc;strokeColor=#d6b656;" vertex="1" parent="1">
          <mxGeometry x="640" y="410" width="120" height="80" as="geometry" />
        </mxCell>
        <mxCell id="Cf-lhE30uROeTPRjq0yv-13" value="Fast" style="ellipse;whiteSpace=wrap;html=1;fillColor=#fff2cc;strokeColor=#d6b656;" vertex="1" parent="1">
          <mxGeometry x="640" y="320" width="120" height="80" as="geometry" />
        </mxCell>
        <mxCell id="Cf-lhE30uROeTPRjq0yv-14" value="Low" style="ellipse;whiteSpace=wrap;html=1;fillColor=#fff2cc;strokeColor=#d6b656;" vertex="1" parent="1">
          <mxGeometry x="640" y="230" width="120" height="80" as="geometry" />
        </mxCell>
        <mxCell id="Cf-lhE30uROeTPRjq0yv-15" value="Middle" style="ellipse;whiteSpace=wrap;html=1;fillColor=#fff2cc;strokeColor=#d6b656;" vertex="1" parent="1">
          <mxGeometry x="640" y="140" width="120" height="80" as="geometry" />
        </mxCell>
        <mxCell id="Cf-lhE30uROeTPRjq0yv-16" value="High" style="ellipse;whiteSpace=wrap;html=1;fillColor=#fff2cc;strokeColor=#d6b656;" vertex="1" parent="1">
          <mxGeometry x="640" y="50" width="120" height="80" as="geometry" />
        </mxCell>
        <mxCell id="Cf-lhE30uROeTPRjq0yv-17" value="" style="endArrow=none;html=1;rounded=0;exitX=1;exitY=0;exitDx=0;exitDy=0;entryX=0;entryY=0.5;entryDx=0;entryDy=0;" edge="1" parent="1" source="KCjV9fs8T_sXrVQNTSXh-12" target="Cf-lhE30uROeTPRjq0yv-16">
          <mxGeometry width="50" height="50" relative="1" as="geometry">
            <mxPoint x="427" y="402" as="sourcePoint" />
            <mxPoint x="475" y="290" as="targetPoint" />
          </mxGeometry>
        </mxCell>
        <mxCell id="Cf-lhE30uROeTPRjq0yv-18" value="" style="endArrow=none;html=1;rounded=0;exitX=1;exitY=0.5;exitDx=0;exitDy=0;entryX=0;entryY=0.5;entryDx=0;entryDy=0;" edge="1" parent="1" source="KCjV9fs8T_sXrVQNTSXh-12" target="Cf-lhE30uROeTPRjq0yv-15">
          <mxGeometry width="50" height="50" relative="1" as="geometry">
            <mxPoint x="577" y="262" as="sourcePoint" />
            <mxPoint x="650" y="100" as="targetPoint" />
          </mxGeometry>
        </mxCell>
        <mxCell id="Cf-lhE30uROeTPRjq0yv-19" value="" style="endArrow=none;html=1;rounded=0;exitX=1;exitY=1;exitDx=0;exitDy=0;entryX=0;entryY=0.5;entryDx=0;entryDy=0;" edge="1" parent="1" source="KCjV9fs8T_sXrVQNTSXh-12" target="Cf-lhE30uROeTPRjq0yv-14">
          <mxGeometry width="50" height="50" relative="1" as="geometry">
            <mxPoint x="587" y="272" as="sourcePoint" />
            <mxPoint x="660" y="110" as="targetPoint" />
          </mxGeometry>
        </mxCell>
        <mxCell id="Cf-lhE30uROeTPRjq0yv-20" value="" style="endArrow=none;html=1;rounded=0;exitX=1;exitY=0;exitDx=0;exitDy=0;entryX=0;entryY=0.5;entryDx=0;entryDy=0;" edge="1" parent="1" source="KCjV9fs8T_sXrVQNTSXh-13" target="Cf-lhE30uROeTPRjq0yv-13">
          <mxGeometry width="50" height="50" relative="1" as="geometry">
            <mxPoint x="597" y="282" as="sourcePoint" />
            <mxPoint x="670" y="120" as="targetPoint" />
          </mxGeometry>
        </mxCell>
        <mxCell id="Cf-lhE30uROeTPRjq0yv-21" value="" style="endArrow=none;html=1;rounded=0;exitX=1;exitY=0.5;exitDx=0;exitDy=0;" edge="1" parent="1" source="KCjV9fs8T_sXrVQNTSXh-13" target="Cf-lhE30uROeTPRjq0yv-12">
          <mxGeometry width="50" height="50" relative="1" as="geometry">
            <mxPoint x="607" y="292" as="sourcePoint" />
            <mxPoint x="680" y="130" as="targetPoint" />
          </mxGeometry>
        </mxCell>
        <mxCell id="Cf-lhE30uROeTPRjq0yv-22" value="" style="endArrow=none;html=1;rounded=0;exitX=1;exitY=1;exitDx=0;exitDy=0;entryX=0;entryY=0;entryDx=0;entryDy=0;" edge="1" parent="1" source="KCjV9fs8T_sXrVQNTSXh-13" target="Cf-lhE30uROeTPRjq0yv-11">
          <mxGeometry width="50" height="50" relative="1" as="geometry">
            <mxPoint x="617" y="302" as="sourcePoint" />
            <mxPoint x="690" y="140" as="targetPoint" />
          </mxGeometry>
        </mxCell>
      </root>
    </mxGraphModel>
  </diagram>
</mxfile>
